<svg width="42" height="42" viewBox="0 0 42 42" fill="none" xmlns="http://www.w3.org/2000/svg">
<path fill-rule="evenodd" clip-rule="evenodd" d="M7.45219 10.5834C6.76843 9.46545 6.41669 8.08936 6.41669 6.41675C6.41669 3.11901 8.89659 0.166748 12.6667 0.166748C16.4417 0.166748 19.486 2.69514 21 6.65389C22.514 2.69514 25.5584 0.166748 29.3334 0.166748C33.1035 0.166748 35.5834 3.11901 35.5834 6.41675C35.5834 8.08936 35.2316 9.46545 34.5479 10.5834H37.6667C39.9679 10.5834 41.8334 12.4489 41.8334 14.7501V18.9167C41.8334 21.2179 39.9679 23.0834 37.6667 23.0834V37.6667C37.6667 39.9679 35.8012 41.8334 33.5 41.8334H8.50002C6.19883 41.8334 4.33335 39.9679 4.33335 37.6667V23.0834C2.03217 23.0834 0.166687 21.2179 0.166687 18.9167V14.7501C0.166687 12.4489 2.03217 10.5834 4.33335 10.5834H7.45219ZM18.9167 14.75H4.33333V18.9167H18.9167V14.75ZM37.6667 18.9167H23.0833V14.75H37.6667V18.9167ZM18.9167 37.6667V23.0833H8.5V37.6667H18.9167ZM33.5 37.6667H23.0833V23.0833H33.5V37.6667ZM12.6667 4.33333C11.3743 4.33333 10.5833 5.27492 10.5833 6.41667C10.5833 9.02757 12.7021 10.269 17.728 10.5302C17.1694 6.64917 15.0879 4.33333 12.6667 4.33333ZM24.125 10.5302C24.6836 6.64917 26.7651 4.33333 29.1863 4.33333C30.4787 4.33333 31.2696 5.27492 31.2696 6.41667C31.2696 9.02757 29.1509 10.269 24.125 10.5302Z" fill="#CC3300"/>
</svg>
