<svg width="46" height="44" viewBox="0 0 46 44" fill="none" xmlns="http://www.w3.org/2000/svg">
<path fill-rule="evenodd" clip-rule="evenodd" d="M7.98515 0.693604L10.9314 3.63988L3.63976 10.9315L0.693481 7.98527L7.98515 0.693604ZM38.0147 0.693685L35.0684 3.63996L42.3601 10.9316L45.3064 7.98535L38.0147 0.693685ZM23 43.8333C11.4941 43.8333 2.16667 34.5059 2.16667 23C2.16667 11.4941 11.4941 2.16667 23 2.16667C34.5059 2.16667 43.8333 11.4941 43.8333 23C43.8333 34.5059 34.5059 43.8333 23 43.8333ZM23 39.6666C32.2048 39.6666 39.6667 32.2047 39.6667 22.9999C39.6667 13.7952 32.2048 6.33325 23 6.33325C13.7953 6.33325 6.33337 13.7952 6.33337 22.9999C6.33337 32.2047 13.7953 39.6666 23 39.6666ZM29.8601 15.277L20.9166 24.2205L16.1397 19.4437L13.1934 22.39L20.9166 30.1131L32.8064 18.2233L29.8601 15.277Z" fill="#389908"/>
</svg>
