<svg width="46" height="30" viewBox="0 0 46 30" fill="none" xmlns="http://www.w3.org/2000/svg">
<path fill-rule="evenodd" clip-rule="evenodd" d="M11.6149 0.416748H41.75C44.0512 0.416748 45.9166 2.28223 45.9166 4.58341V25.4167C45.9166 27.7179 44.0512 29.5834 41.75 29.5834H11.6149C10.2218 29.5834 8.92084 28.8872 8.14807 27.728L0.433208 16.1557C-0.0333187 15.4559 -0.0333187 14.5442 0.433208 13.8445L8.14807 2.27216C8.92084 1.113 10.2218 0.416748 11.6149 0.416748ZM4.67051 15L11.615 25.4167H41.75V4.58333H11.615L4.67051 15ZM14.6667 15C14.6667 16.1506 13.7339 17.0833 12.5833 17.0833C11.4327 17.0833 10.5 16.1506 10.5 15C10.5 13.8494 11.4327 12.9167 12.5833 12.9167C13.7339 12.9167 14.6667 13.8494 14.6667 15Z" fill="#389908"/>
</svg>
