<svg width="46" height="46" viewBox="0 0 46 46" fill="none" xmlns="http://www.w3.org/2000/svg">
<path fill-rule="evenodd" clip-rule="evenodd" d="M23 45.9166C10.3435 45.9166 0.0833435 35.6564 0.0833435 22.9999C0.0833435 10.3434 10.3435 0.083252 23 0.083252C35.6565 0.083252 45.9167 10.3434 45.9167 22.9999C45.9167 35.6564 35.6565 45.9166 23 45.9166ZM23 41.75C33.3553 41.75 41.75 33.3553 41.75 23C41.75 12.6447 33.3553 4.25 23 4.25C12.6447 4.25 4.25 12.6447 4.25 23C4.25 33.3553 12.6447 41.75 23 41.75ZM25.0833 29.25C25.0833 32.7018 27.8816 35.5 31.3333 35.5C34.7851 35.5 37.5833 32.7018 37.5833 29.25C37.5833 25.7982 34.7851 23 31.3333 23C27.8816 23 25.0833 25.7982 25.0833 29.25ZM31.3333 31.3333C32.4839 31.3333 33.4167 30.4006 33.4167 29.25C33.4167 28.0994 32.4839 27.1667 31.3333 27.1667C30.1827 27.1667 29.25 28.0994 29.25 29.25C29.25 30.4006 30.1827 31.3333 31.3333 31.3333ZM8.41667 16.75C8.41667 20.2018 11.2149 23 14.6667 23C18.1184 23 20.9167 20.2018 20.9167 16.75C20.9167 13.2982 18.1184 10.5 14.6667 10.5C11.2149 10.5 8.41667 13.2982 8.41667 16.75ZM14.6667 18.8333C15.8173 18.8333 16.75 17.9006 16.75 16.75C16.75 15.5994 15.8173 14.6667 14.6667 14.6667C13.5161 14.6667 12.5833 15.5994 12.5833 16.75C12.5833 17.9006 13.5161 18.8333 14.6667 18.8333ZM19.0792 35.5L31.5792 10.5H26.9207L14.4207 35.5H19.0792Z" fill="#389908"/>
</svg>
