<svg width="46" height="32" viewBox="0 0 46 32" fill="none" xmlns="http://www.w3.org/2000/svg">
<path fill-rule="evenodd" clip-rule="evenodd" d="M32.1291 4.58342L35.9674 12.26L41.75 16.115V23.3334H39.3111C38.4531 20.9059 36.138 19.1667 33.4167 19.1667C30.6954 19.1667 28.3803 20.9058 27.5223 23.3333H18.4777C17.6197 20.9058 15.3046 19.1667 12.5833 19.1667C9.86201 19.1667 7.54691 20.9059 6.68894 23.3334H4.25004V4.58342H32.1291ZM41.75 27.5001H39.311C38.453 29.9275 36.1379 31.6667 33.4167 31.6667C30.6954 31.6667 28.3803 29.9275 27.5223 27.5H18.4777C17.6197 29.9275 15.3046 31.6667 12.5833 31.6667C9.86208 31.6667 7.54702 29.9275 6.689 27.5001H4.25004C1.94885 27.5001 0.083374 25.6346 0.083374 23.3334V4.58342C0.083374 2.28223 1.94885 0.416748 4.25004 0.416748H32.1291C33.7074 0.416748 35.1501 1.30842 35.8559 2.72002L39.1993 9.40687L45.9167 13.8851V23.3334C45.9167 25.6346 44.0512 27.5001 41.75 27.5001ZM14.6667 25.4167C14.6667 26.5673 13.7339 27.5 12.5833 27.5C11.4327 27.5 10.5 26.5673 10.5 25.4167C10.5 24.2661 11.4327 23.3333 12.5833 23.3333C13.7339 23.3333 14.6667 24.2661 14.6667 25.4167ZM35.5 25.4167C35.5 26.5673 34.5673 27.5 33.4167 27.5C32.2661 27.5 31.3333 26.5673 31.3333 25.4167C31.3333 24.2661 32.2661 23.3333 33.4167 23.3333C34.5673 23.3333 35.5 24.2661 35.5 25.4167Z" fill="#389908"/>
</svg>
