<svg width="46" height="46" viewBox="0 0 46 46" fill="none" xmlns="http://www.w3.org/2000/svg">
<path fill-rule="evenodd" clip-rule="evenodd" d="M14.6667 10.4999H8.65437C12.6764 5.89862 17.0817 4.24992 23 4.24992C33.3553 4.24992 41.75 12.6446 41.75 22.9999C41.75 33.3553 33.3553 41.7499 23 41.7499C12.6447 41.7499 4.25001 33.3553 4.25001 22.9999H0.0833435C0.0833435 35.6564 10.3435 45.9166 23 45.9166C35.6565 45.9166 45.9167 35.6564 45.9167 22.9999C45.9167 10.3434 35.6565 0.083252 23 0.083252C16.3055 0.083252 10.9939 1.98025 6.33334 6.86752V2.14827H2.16668V14.6666H14.6667V10.4999ZM33.4167 20.9167H25.0833V10.5H20.9167V25.0833H33.4167V20.9167Z" fill="#389908"/>
</svg>
