<svg width="2000" height="6" viewBox="0 0 2000 6" fill="none" xmlns="http://www.w3.org/2000/svg">
<path d="M0 3C0 3 2.89696 1 5 1C7.10304 1 10 3 10 3C10 3 12.897 5 15 5C17.103 5 20 3 20 3C20 3 22.897 1 25 1C27.103 1 30 3 30 3C30 3 32.897 5 35 5C37.103 5 40 3 40 3C40 3 42.897 1 45 1C47.103 1 50 3 50 3C50 3 52.897 5 55 5C57.103 5 60 3 60 3C60 3 62.897 1 65 1C67.103 1 70 3 70 3C70 3 72.897 5 75 5C77.103 5 80 3 80 3C80 3 82.897 1 85 1C87.103 1 90 3 90 3C90 3 92.897 5 95 5C97.103 5 100 3 100 3C100 3 102.897 1 105 1C107.103 1 110 3 110 3C110 3 112.897 5 115 5C117.103 5 120 3 120 3C120 3 122.897 1 125 1C127.103 1 130 3 130 3C130 3 132.897 5 135 5C137.103 5 140 3 140 3C140 3 142.897 1 145 1C147.103 1 150 3 150 3C150 3 152.897 5 155 5C157.103 5 160 3 160 3C160 3 162.897 1 165 1C167.103 1 170 3 170 3C170 3 172.897 5 175 5C177.103 5 180 3 180 3C180 3 182.897 1 185 1C187.103 1 190 3 190 3C190 3 192.897 5 195 5C197.103 5 200 3 200 3C200 3 202.897 1 205 1C207.103 1 210 3 210 3C210 3 212.897 5 215 5C217.103 5 220 3 220 3C220 3 222.897 1 225 1C227.103 1 230 3 230 3C230 3 232.897 5 235 5C237.103 5 240 3 240 3C240 3 242.897 1 245 1C247.103 1 250 3 250 3C250 3 252.897 5 255 5C257.103 5 260 3 260 3C260 3 262.897 1 265 1C267.103 1 270 3 270 3C270 3 272.897 5 275 5C277.103 5 280 3 280 3C280 3 282.897 1 285 1C287.103 1 290 3 290 3C290 3 292.897 5 295 5C297.103 5 300 3 300 3C300 3 302.897 1 305 1C307.103 1 310 3 310 3C310 3 312.897 5 315 5C317.103 5 320 3 320 3C320 3 322.897 1 325 1C327.103 1 330 3 330 3C330 3 332.897 5 335 5C337.103 5 340 3 340 3C340 3 342.897 1 345 1C347.103 1 350 3 350 3C350 3 352.897 5 355 5C357.103 5 360 3 360 3C360 3 362.897 1 365 1C367.103 1 370 3 370 3C370 3 372.897 5 375 5C377.103 5 380 3 380 3C380 3 382.897 1 385 1C387.103 1 390 3 390 3C390 3 392.897 5 395 5C397.103 5 400 3 400 3C400 3 402.897 1 405 1C407.103 1 410 3 410 3C410 3 412.897 5 415 5C417.103 5 420 3 420 3C420 3 422.897 1 425 1C427.103 1 430 3 430 3C430 3 432.897 5 435 5C437.103 5 440 3 440 3C440 3 442.897 1 445 1C447.103 1 450 3 450 3C450 3 452.897 5 455 5C457.103 5 460 3 460 3C460 3 462.897 1 465 1C467.103 1 470 3 470 3C470 3 472.897 5 475 5C477.103 5 480 3 480 3C480 3 482.897 1 485 1C487.103 1 490 3 490 3C490 3 492.897 5 495 5C497.103 5 500 3 500 3C500 3 502.897 1 505 1C507.103 1 510 3 510 3C510 3 512.897 5 515 5C517.103 5 520 3 520 3C520 3 522.897 1 525 1C527.103 1 530 3 530 3C530 3 532.897 5 535 5C537.103 5 540 3 540 3C540 3 542.897 1 545 1C547.103 1 550 3 550 3C550 3 552.897 5 555 5C557.103 5 560 3 560 3C560 3 562.897 1 565 1C567.103 1 570 3 570 3C570 3 572.897 5 575 5C577.103 5 580 3 580 3C580 3 582.897 1 585 1C587.103 1 590 3 590 3C590 3 592.897 5 595 5C597.103 5 600 3 600 3C600 3 602.897 1 605 1C607.103 1 610 3 610 3C610 3 612.897 5 615 5C617.103 5 620 3 620 3C620 3 622.897 1 625 1C627.103 1 630 3 630 3C630 3 632.897 5 635 5C637.103 5 640 3 640 3C640 3 642.897 1 645 1C647.103 1 650 3 650 3C650 3 652.897 5 655 5C657.103 5 660 3 660 3C660 3 662.897 1 665 1C667.103 1 670 3 670 3C670 3 672.897 5 675 5C677.103 5 680 3 680 3C680 3 682.897 1 685 1C687.103 1 690 3 690 3C690 3 692.897 5 695 5C697.103 5 700 3 700 3" stroke="#389908" stroke-width="2"/>
</svg>
