<svg width="180" height="80" viewBox="0 0 180 80" fill="none" xmlns="http://www.w3.org/2000/svg">
<g clip-path="url(#clip0)">
<path fill-rule="evenodd" clip-rule="evenodd" d="M39.5713 3.29911L39.7707 0.0325937L37.8841 2.77379C23.858 23.1529 26.3294 40.804 29.8657 48.3163L17.4944 49.3478L32.7128 55.9554L36.6235 55.7388L24.5694 50.5051L32.7478 49.8231L32.0871 48.66C28.77 42.82 25.2848 26.3217 37.5804 6.53944C37.3053 14.9121 37.831 24.9214 39.9194 33.4516C41.8069 41.1616 45.0311 47.9183 50.3659 50.9781C55.8409 54.1184 63.103 53.1624 72.4454 46.4553L72.8108 46.1926L72.8089 45.758C72.7988 43.4923 74.7306 41.6477 77.1238 41.6383C79.1282 41.6305 80.8227 42.9137 81.3241 44.6642L81.4984 45.2736L90.9287 45.7236L81.4855 46.288L81.3064 46.8773C80.7878 48.5853 79.1287 49.8362 77.1596 49.8439C75.9981 49.8484 74.9436 49.4211 74.1614 48.7192L73.594 48.21L72.9722 48.6591C70.5537 50.4056 67.4466 52.2995 64.1097 53.7566C60.7648 55.2173 57.2455 56.2136 53.9846 56.2249C50.7528 56.2362 47.7894 55.2834 45.4361 52.8431C43.1004 50.4205 41.2787 46.4427 40.5061 40.2308L38.3814 37.8791L38.6382 40.0799C39.409 46.6878 41.3397 51.1757 44.0789 54.0162C46.8432 56.8834 50.3387 57.9778 53.9913 57.9651C57.6151 57.9525 61.4057 56.8535 64.8796 55.3367C68.0961 53.9326 71.09 52.1476 73.5009 50.4594C74.5282 51.1708 75.7971 51.5895 77.1673 51.5841C79.7419 51.5742 81.9397 50.0732 82.8562 47.95L86.8575 47.7108L84.4811 53.2088H86.9803L89.368 47.5607L102.636 46.7677L105.347 53.2088H107.846L105.041 46.624L109.459 46.3599L104.289 44.8587L97.8868 29.8284L96.7129 32.6972L101.67 44.4731L90.8859 43.9704L97.0916 29.2905H94.8193L88.5217 43.8602L82.8834 43.5974C81.9774 41.4229 79.7347 39.8877 77.1162 39.898C73.8677 39.9108 71.2161 42.298 70.9869 45.3162C62.0614 51.6207 55.7702 52.0436 51.3182 49.4898C46.694 46.8375 43.6157 40.7704 41.7415 33.1875C42.0003 30.2312 44.2032 22.6907 51.0369 14.2294C51.0257 14.2722 51.0141 14.315 51.0024 14.3581L50.9973 14.3771C49.4351 20.1855 47.2623 28.265 48.2264 40.9577L50.3096 44.0772L50.067 40.9303C49.108 28.4892 51.2036 20.6824 52.7663 14.8618L52.7717 14.8415C53.1512 13.4269 53.4992 12.1295 53.7639 10.9114L54.4693 7.66319L52.1702 10.1649C45.5993 17.3163 42.2752 24.1934 40.8245 28.8464C39.3044 20.3334 39.1091 10.871 39.5713 3.29911ZM30.8271 56.6197L26.9714 55.6099L17 57.5979L0.0147095 66.5706L3.08026 66.9437L17.6517 59.2463L30.8271 56.6197ZM158.924 33.1275L157.107 34.2391C155.516 32.1593 152.752 30.7966 149.76 30.7608V28.8961C153.736 28.932 156.804 30.5815 158.924 33.1275ZM148.814 30.7966C143.322 31.2269 139.195 35.3508 139.195 41.2676C139.195 47.1127 143.322 51.3081 148.814 51.7386V53.6032C142.072 53.2088 136.922 48.2962 136.922 41.2676C136.922 34.2391 142.072 29.3623 148.814 28.932V30.7966ZM157.107 48.2962L158.962 49.3716C156.69 51.9896 153.736 53.6032 149.76 53.6389V51.7743C152.752 51.7743 155.516 50.376 157.107 48.2962ZM129.26 29.2905L111.159 53.2088H114.15L131.986 29.2905H129.26ZM113.468 29.2905H111.31V51.38L113.468 48.6548V29.2905ZM129.639 53.2088H131.797V31.3345L129.639 34.275V53.2088ZM33.5006 75.02H32.4221V64.4491H33.5006V75.02ZM41.9585 75.02H40.88V64.4491H41.9585V75.02ZM43.2452 75.4682V78.6573H42.2991V76.3998H32.4221V75.4682H43.2452ZM46.913 71.6337H53.0625C53.0434 70.2182 52.0973 68.4626 49.9783 68.3369V67.5306C52.6083 67.6382 54.0654 69.681 54.0654 72.1176V72.3686H46.913C46.913 72.3686 46.8563 72.0638 46.913 71.6337ZM49.5055 76.5969C47.0644 76.3998 45.3993 74.5899 45.3993 72.0638C45.3993 69.6448 47.0833 67.674 49.5055 67.5487V68.3369C45.4182 68.5879 45.2858 75.2891 49.5055 75.7725V76.5969ZM52.987 74.608L53.4975 75.2172C52.5897 76.1131 51.454 76.5969 49.9783 76.6146V75.8087H49.9974C51.1517 75.8087 52.2109 75.3963 52.987 74.608ZM57.5928 67.7459V71.6518H62.6637V72.4938H56.609V67.7459H57.5928ZM63.137 76.3998V67.7459H64.1208V76.3998H63.137ZM56.609 72.9416H57.5928V76.3998H56.609V72.9416ZM68.6731 68.2655C69.2787 67.853 70.0734 67.5306 71.114 67.5306C72.6657 67.5306 73.5927 68.4803 73.5927 69.9315V76.3998H72.6089V70.1644C72.5711 69.0718 72.1356 68.4446 70.9249 68.4446C70.168 68.4446 69.2787 68.8565 68.6731 69.4119V68.2655ZM76.5069 67.5306C77.9258 67.5306 78.6636 68.3193 78.891 69.1613L78.8917 69.1643L78.8918 69.1644C78.9117 69.2407 78.9855 69.5239 78.9855 69.842V76.3998H78.0012V70.3439C78.0012 69.1252 77.6039 68.4446 76.3173 68.4446C75.5226 68.4446 74.8225 68.7489 74.1223 69.3047C74.1223 69.3047 74.0846 69.0356 74.0091 68.8208C73.9146 68.5522 73.8009 68.3907 73.8009 68.3907C74.501 67.8711 75.4849 67.5306 76.5069 67.5306ZM67.216 76.3998V67.7459H68.2003V76.3998H67.216ZM83.5287 74.7157C84.1529 75.3067 85.0804 75.7549 86.0642 75.7549C88.1078 75.7549 89.2616 74.1603 89.2616 72.0638C89.2616 69.9677 88.2592 68.4265 86.2156 68.4265C85.2313 68.4265 84.1529 69.0356 83.5287 69.5914V68.5522C84.1907 67.9249 85.1559 67.5306 86.2342 67.5306C88.6751 67.5306 90.3214 69.2866 90.3214 72.0638C90.3214 74.8228 88.6751 76.6146 86.2342 76.6146C85.1936 76.6146 84.2475 76.4355 83.5287 75.7725V74.7157ZM83.0555 79.6965H82.0716V67.7459H83.0555V79.6965ZM98.2339 72.0638C98.2339 74.1603 99.4069 75.7011 101.432 75.7011C102.397 75.7011 103.343 74.9662 103.967 74.2318V75.5396C103.286 76.1669 102.34 76.6146 101.261 76.6146C98.8395 76.6146 97.1933 74.8409 97.1933 72.0638C97.1933 69.3223 98.8395 67.5306 101.261 67.5306C102.321 67.5306 103.229 67.7635 103.967 68.2474V69.3942C103.305 68.8027 102.321 68.3727 101.337 68.3727C99.3123 68.3727 98.2339 69.9677 98.2339 72.0638ZM105.443 76.3279C105.443 78.9621 103.551 79.9114 101.337 79.9114C99.7856 79.9114 98.8013 79.6427 97.7229 78.6035L98.2907 77.851C99.0854 78.7469 100.183 79.0336 101.337 79.0336C102.983 79.0336 104.44 78.2811 104.44 76.3279V67.7459H105.443V76.3279ZM112.09 76.6146C109.555 76.4893 107.984 74.5185 107.984 72.0638C107.984 69.6271 109.555 67.6563 112.09 67.5306V68.3907C110.122 68.516 109.025 70.2182 109.025 72.0638C109.025 73.927 110.122 75.6292 112.09 75.7725V76.6146ZM112.601 67.5306C115.175 67.6382 116.764 69.6091 116.764 72.0638C116.764 74.5185 115.175 76.5074 112.601 76.6146V75.7725C114.607 75.6654 115.704 73.927 115.704 72.0638C115.704 70.2182 114.607 68.4984 112.601 68.3727V67.5306ZM125.719 69.6091C125.057 68.7489 124.281 68.4088 123.278 68.4088C121.235 68.4088 119.967 69.8243 119.835 71.7413H118.794C118.927 69.3585 120.648 67.5306 123.221 67.5306C124.811 67.5306 125.719 68.1221 126.457 68.9999L125.719 69.6091ZM126.457 75.1276C125.719 76.0235 124.811 76.6146 123.221 76.6146C120.573 76.6146 118.851 74.6795 118.794 72.2252H119.835C119.891 74.2318 121.178 75.7368 123.278 75.7368C124.281 75.7368 125.076 75.4144 125.738 74.5542L126.457 75.1276ZM130.15 68.2655C130.755 67.853 131.55 67.5306 132.591 67.5306C134.142 67.5306 135.069 68.4803 135.069 69.9315V76.3998H134.085V70.1644C134.047 69.0718 133.612 68.4446 132.401 68.4446C131.644 68.4446 130.755 68.8565 130.15 69.4119V68.2655ZM137.983 67.5306C139.402 67.5306 140.14 68.3193 140.367 69.1613C140.386 69.2328 140.462 69.5195 140.462 69.842V76.3998H139.478V70.3439C139.478 69.1252 139.08 68.4446 137.794 68.4446C136.999 68.4446 136.299 68.7489 135.599 69.3047C135.599 69.3047 135.561 69.0356 135.485 68.8208C135.391 68.5522 135.277 68.3907 135.277 68.3907C135.978 67.8711 136.961 67.5306 137.983 67.5306ZM128.693 76.3998V67.7459H129.676V76.3998H128.693ZM149.357 76.3998V70.3439C149.357 69.0537 148.316 68.3727 146.973 68.3727C145.819 68.3727 144.967 68.8746 144.153 69.6629L143.491 68.9818C144.437 68.0145 145.497 67.5306 147.011 67.5306C148.865 67.5306 150.341 68.3727 150.341 70.3078V76.3998H149.357ZM144.097 73.7479C144.097 74.9662 145.099 75.7368 146.594 75.7368C147.351 75.7368 148.297 75.3248 148.884 74.859V75.9159C148.146 76.4355 147.276 76.6146 146.254 76.6146C144.683 76.6146 143.056 75.5934 143.056 73.7302C143.056 71.849 144.721 70.7559 146.594 70.7559C147.654 70.7559 148.43 71.0245 148.884 71.2398V72.3505C148.203 71.9204 147.333 71.6518 146.594 71.6518C145.099 71.6518 144.097 72.5119 144.097 73.7479ZM153.888 67.9249V72.7448C153.813 74.7695 155.705 75.7368 156.405 75.7368V76.5789C155.156 76.5789 152.904 75.2529 152.904 72.7448V67.9249C152.904 65.5955 154.891 64.27 156.405 64.27V65.1121C155.383 65.1121 153.888 66.1689 153.888 67.9249ZM156.821 65.1121V64.27C159.091 64.27 160.379 65.7569 160.379 67.4768C160.379 69.1075 159.489 69.9496 158.6 70.272C159.754 70.5587 160.625 71.598 160.625 73.1211C160.625 75.4144 158.827 76.5789 156.821 76.5789V75.7368C158.184 75.7368 159.64 74.7871 159.64 73.1211C159.64 71.0426 157.616 70.7021 157.01 70.7021H154.305V69.86H157.01C158.486 69.86 159.394 69.0356 159.394 67.4768C159.394 66.3304 158.6 65.1121 156.821 65.1121ZM163.116 76.3998V67.7459H164.1V76.3998H163.116ZM164.573 72.2609L169.474 67.7459H170.798L164.573 73.3897V72.2609ZM169.455 76.3998L166.106 72.6191L166.806 72.0099L170.722 76.3998H169.455ZM178.327 75.6654C177.721 76.0773 176.738 76.5969 175.697 76.5969C174.013 76.5969 172.707 75.4501 172.707 73.9989V67.7459H173.691V73.766C173.691 75.0024 174.561 75.6292 175.886 75.6292C176.643 75.6292 177.721 75.0381 178.327 74.4828V75.6654ZM179.784 67.7459V76.3998H178.8V67.7459H179.784ZM168.805 31.1552V29.2905H161.458V31.1552H168.805ZM171.91 29.2905H169.751V53.2088H171.91V29.2905ZM180.165 29.2905H172.856V31.1552H180.165V29.2905Z" fill="#389908"/>
<path fill-rule="evenodd" clip-rule="evenodd" d="M81.3062 46.8789L81.4852 46.2896L90.9284 45.7252L81.4981 45.2753L81.3238 44.6657L82.8831 43.5988L103.208 44.5463L109.458 46.3615L82.8554 47.9516L81.3062 46.8789ZM30.8267 56.6214L26.9709 55.6115L16.9995 57.5991L0.0142822 66.5719L3.07984 66.9454L17.6512 59.2479L30.8267 56.6214Z" fill="#CC3300"/>
</g>
<defs>
<clipPath id="clip0">
<rect width="180" height="80" fill="white"/>
</clipPath>
</defs>
</svg>
